<svg xmlns="http://www.w3.org/2000/svg" version="1.1" xmlns:xlink="http://www.w3.org/1999/xlink" xmlns:svgjs="http://svgjs.dev/svgjs" width="128" height="128" viewBox="0 0 128 128"><g transform="matrix(0.8046875,0,0,0.8046875,11.94852495904314,-0.3185084228515649)"><svg viewBox="0 0 77 96" data-background-color="#ffffff" preserveAspectRatio="xMidYMid meet" height="159" width="128" xmlns="http://www.w3.org/2000/svg" xmlns:xlink="http://www.w3.org/1999/xlink"><g id="tight-bounds" transform="matrix(1,0,0,1,0.41226774906483854,0.25950000000000273)"><svg viewBox="0 0 76.17546450187032 95.481" height="95.481" width="76.17546450187032"><g><svg viewBox="0 0 76.17546450187032 95.481" height="95.481" width="76.17546450187032"><g><svg viewBox="0 0 76.17546450187032 95.481" height="95.481" width="76.17546450187032"><g id="textblocktransform"><svg viewBox="0 0 76.17546450187032 95.481" height="95.481" width="76.17546450187032" id="textblock"><g><svg viewBox="0 0 76.17546450187032 95.481" height="95.481" width="76.17546450187032"><g><svg viewBox="0 0 76.17546450187032 95.481" height="95.481" width="76.17546450187032"><g><svg xmlns:x="http://ns.adobe.com/Extensibility/1.0/" xmlns:i="http://ns.adobe.com/AdobeIllustrator/10.0/" xmlns:graph="http://ns.adobe.com/Graphs/1.0/" xmlns="http://www.w3.org/2000/svg" xmlns:xlink="http://www.w3.org/1999/xlink" version="1.1" x="0" y="0" viewBox="105.6980389461976 40.4072600197217 356.0429610538024 446.2767399802783" enable-background="new 0 0 512 512" xml:space="preserve" height="95.481" width="76.17546450187032" class="icon-icon-0" data-fill-palette-color="accent" id="icon-0"><g fill="#e43030" data-fill-palette-color="accent"><g fill="#e43030" data-fill-palette-color="accent"><path fill="#e43030" d="M337.023 279.534C333.967 281.251 332.807 284.378 333.539 288.917 334.271 293.438 336.809 299.604 341.17 307.379 345.529 315.15 349.482 320.549 353.002 323.605S359.809 327.32 362.864 325.606C368.744 322.318 367.351 312.954 358.701 297.53 350.123 282.232 342.903 276.248 337.023 279.534" data-fill-palette-color="accent"></path></g><g fill="#e43030" data-fill-palette-color="accent"><g fill="#e43030" data-fill-palette-color="accent"><path fill="#e43030" d="M461.741 371.652C461.517 363.792 458.327 351.673 454.651 344.722L338.273 124.616C334.597 117.665 331.771 111.881 331.992 111.763S332.101 111.432 331.744 111.29C331.386 111.147 325.126 108.625 317.833 105.686L306.357 101.06 279.837 90.371 158.315 41.39C151.022 38.451 143.682 42.33 142.003 50.013L112.045 187.133 106.706 211.555C105.447 217.305 105.355 223.779 106.5 225.942L115.265 242.513 231.644 462.636C235.319 469.587 243.537 479.048 249.906 483.659L262.932 486.684C270.756 485.903 282.845 482.256 289.796 478.58L435.079 401.753C442.03 398.077 451.85 390.139 456.902 384.113zM176.563 98.879C191.7 90.872 208.64 93.088 214.306 103.794 219.988 114.551 212.268 129.759 197.115 137.765 181.924 145.807 165.055 143.609 159.371 132.851 153.688 122.128 161.371 106.921 176.563 98.879M267.293 319.779C265.81 329.912 259.804 337.919 249.279 343.815 239.181 349.481 229.352 350.23 219.775 346.067 210.213 341.904 201.581 332.967 193.898 319.26 178.206 291.292 180.923 271.404 202.028 259.554 212.376 253.765 222.347 252.942 231.945 257.07 241.559 261.218 250.137 270.028 257.68 283.483 265.577 297.566 268.775 309.665 267.293 319.779M288.191 390.174C282.131 393.575 277.143 389.924 277.107 382.061L276.419 234.715C276.383 226.852 281.311 217.636 287.369 214.236 293.429 210.835 298.417 214.486 298.453 222.349L299.142 369.695C299.179 377.558 294.251 386.773 288.191 390.174M391.298 320.583C389.816 330.717 383.811 338.725 373.283 344.62 363.188 350.286 353.358 351.035 343.779 346.871S325.588 333.809 317.938 320.155C302.264 292.188 304.963 272.298 326.085 260.449 336.416 254.659 346.389 253.836 356.002 257.981 365.599 262.128 374.176 270.92 381.736 284.377 389.601 298.39 392.781 310.469 391.298 320.583" data-fill-palette-color="accent"></path></g></g><g fill="#e43030" data-fill-palette-color="accent"><path fill="#e43030" d="M212.982 278.642C209.909 280.358 208.748 283.484 209.479 288.024 210.213 292.545 212.769 298.71 217.128 306.486 221.49 314.241 225.42 319.656 228.941 322.712 232.462 325.769 235.75 326.429 238.805 324.712 244.686 321.425 243.291 312.061 234.659 296.639 226.082 281.339 218.845 275.354 212.982 278.642" data-fill-palette-color="accent"></path></g></g></svg><g></g></g></svg></g></svg></g></svg></g></svg></g></svg></g><defs></defs></svg><rect width="76.17546450187032" height="95.481" fill="none" stroke="none" visibility="hidden"></rect></g></svg></g></svg>